<svg width="69" height="44" viewBox="0 0 69 44" fill="none" xmlns="http://www.w3.org/2000/svg">
<path id="Vector 17" d="M15.3233 4.13224C19.4708 2.44649 27.5256 3.07976 27.5256 3.07976C27.5256 3.07976 31.1257 6.70171 34.7344 6.05462C37.4994 5.55881 39.2769 3.07976 39.2769 3.07976C39.2769 3.07976 43.4636 2.46722 45.6956 3.07976C48.0498 3.72583 49.3622 4.56111 51.0281 6.3521C52.7939 8.25056 53.9906 12.3018 53.9906 12.3018C53.9906 12.3018 53.6944 9.02948 55.7681 6.3521C56.6631 5.19658 58.5331 3.67473 58.5331 3.67473L59.8169 1.19568L67.4206 4.46803C67.4206 4.46803 66.8281 5.95546 67.2231 7.44289C67.7051 9.25793 68.267 10.5064 67.7168 12.3018C66.5318 16.1691 66.173 16.0693 65.1494 19.8381C64.5569 22.0197 64.1618 24.7962 64.1618 24.7962C64.1618 24.7962 62.0471 33.7757 57.5456 34.415C54.2811 34.8785 49.8431 30.9443 49.8431 30.9443V41.2571C49.8431 41.2571 48.4606 39.4722 46.8806 39.0756C45.3006 38.6789 40.1656 38.7781 38.3881 38.7781C35.3848 38.7781 29.4019 36.299 29.4019 36.299V42.6454H26.4394C26.4394 42.6454 14.7869 43.7362 6.98561 42.6454C4.09557 42.2413 2.83786 40.0102 1.75186 37.2907C0.42361 33.9644 1.90443 31.652 2.73936 28.1677C3.93482 23.179 8.07186 16.1691 8.07186 16.1691C8.07186 16.1691 11.9658 5.4969 15.3233 4.13224Z" fill="#F4D916" stroke="black"/>
</svg>
